# xmcd
#
# Track frame offsets:
#	150
#	12400
#	23492
#	37752
#	53737
#	67205
#	78177
#	90447
#	104512
#	117280
#	130938
#	148325
#	162535
#	175831
#	189359
#	207032
#
# Disc length: 2969 seconds
#
# Revision: 0
# Processed by: cddbd v1.5.2PL0 Copyright (c) Steve Scherf et al.
# Submitted via: EasyCDDAExtractor 16.0.8.2
#
DISCID=d20b9710
DTITLE=Σακελλαρίου Ρίτα - Εγώ, η Ρίτα! 1
DYEAR=2014
DGENRE=Λαϊκή
TTITLE0=Αν κάνω άτακτη ζωή [Γ. Μανισαλής-Κ. Ψυχογιός]
TTITLE1=Μιά ζωή πληρώνω [Τάκης Μουσαφίρης]
TTITLE2=Ιστορία μου [Γ. Μανισαλής-Κ. Ψυχογιός]
TTITLE3=Ένα τραγούδι πες μου ακόμα [Τ. Μουσαφίρης]
TTITLE4=Τελευταία ώρα [Γ. Μανισαλής-Γ. Γιαννακόπουλος]
TTITLE5=Δυό αγάπες μου σε μιά φωτογραφία[Λ.Καρέλας-Γ.Θεοδαρακ)λος]
TTITLE6=Απαλλάχτηκα από σένα [Γ. Μπούρας-Παρασκευή Πολίτου]
TTITLE7=Έχω κι εγώ τα δικά μου [Τάκης Μουσαφίρης]
TTITLE8=Λες να μην το ξέρω [Τάκης Μουσαφίρης]
TTITLE9=Όλα τα καταλαβαίνω [Γ. Μανισαλής-Αντιόπη Μπατσαλιά]
TTITLE10=Αυτός ο άνθρωπος, αυτός [Λυκ. Μαρκέας-Μάρω Μπιζάνη]
TTITLE11=Βαδίζω και παραμιλώ [Γ. Μητσάκης-Γ. Παπαϊωάννου]
TTITLE12=Κανείς δεν είναι τέλειος [Αντ. Στεφανίδης-Β. Παπαδόπουλος]
TTITLE13=Η ζημιά [Γ. Μανισαλής-Κ. Ψυχογιός]
TTITLE14=Μόνη μου [Τάκης Μουσαφίρης]
TTITLE15=Το βουνό [Λ. Νταράλας-Ευάγγ. Πρέκας]
EXTD=
EXTT0=
EXTT1=
EXTT2=
EXTT3=
EXTT4=
EXTT5=
EXTT6=
EXTT7=
EXTT8=
EXTT9=
EXTT10=
EXTT11=
EXTT12=
EXTT13=
EXTT14=
EXTT15=
PLAYORDER=
